<mxfile host="Electron" modified="2024-05-21T23:11:00.294Z" agent="Mozilla/5.0 (Windows NT 10.0; Win64; x64) AppleWebKit/537.36 (KHTML, like Gecko) draw.io/24.4.0 Chrome/120.0.6099.109 Electron/28.1.0 Safari/537.36" etag="BJWZnBUwGxfAdsmfPaBx" version="24.4.0" type="device">
  <diagram name="Page-1" id="qXGZwPNB0w4rTQnVIEGF">
    <mxGraphModel dx="1290" dy="780" grid="1" gridSize="10" guides="1" tooltips="1" connect="1" arrows="1" fold="1" page="1" pageScale="1" pageWidth="850" pageHeight="1100" math="0" shadow="0">
      <root>
        <mxCell id="0" />
        <mxCell id="1" parent="0" />
        <mxCell id="6M090ItoJZ9JLc7ZXNOy-1" value="Fraction" style="swimlane;fontStyle=1;align=center;verticalAlign=top;childLayout=stackLayout;horizontal=1;startSize=26;horizontalStack=0;resizeParent=1;resizeParentMax=0;resizeLast=0;collapsible=1;marginBottom=0;whiteSpace=wrap;html=1;" vertex="1" parent="1">
          <mxGeometry x="308" y="425" width="235" height="250" as="geometry" />
        </mxCell>
        <mxCell id="6M090ItoJZ9JLc7ZXNOy-2" value="- top: int&lt;div&gt;- bottom: int&lt;/div&gt;" style="text;strokeColor=none;fillColor=none;align=left;verticalAlign=top;spacingLeft=4;spacingRight=4;overflow=hidden;rotatable=0;points=[[0,0.5],[1,0.5]];portConstraint=eastwest;whiteSpace=wrap;html=1;" vertex="1" parent="6M090ItoJZ9JLc7ZXNOy-1">
          <mxGeometry y="26" width="235" height="44" as="geometry" />
        </mxCell>
        <mxCell id="6M090ItoJZ9JLc7ZXNOy-3" value="" style="line;strokeWidth=1;fillColor=none;align=left;verticalAlign=middle;spacingTop=-1;spacingLeft=3;spacingRight=3;rotatable=0;labelPosition=right;points=[];portConstraint=eastwest;strokeColor=inherit;" vertex="1" parent="6M090ItoJZ9JLc7ZXNOy-1">
          <mxGeometry y="70" width="235" height="8" as="geometry" />
        </mxCell>
        <mxCell id="6M090ItoJZ9JLc7ZXNOy-4" value="+ Fraction()&lt;div&gt;+ Fraction(wholeNumber: int)&lt;/div&gt;&lt;div&gt;+ Fraction(top: int, bottom: int)&lt;/div&gt;&lt;div&gt;&lt;br&gt;&lt;/div&gt;&lt;div&gt;+ SetTop(top: int): void&lt;/div&gt;&lt;div&gt;+ SetBottom(bottom: int): void&lt;/div&gt;&lt;div&gt;+ GetTop(): int&lt;/div&gt;&lt;div&gt;+ GetBottom(): int&lt;/div&gt;&lt;div&gt;&lt;br&gt;&lt;/div&gt;&lt;div&gt;+ GetFractionString(): string&lt;/div&gt;&lt;div&gt;+ GetFractionDecimal(): float&lt;/div&gt;" style="text;strokeColor=none;fillColor=none;align=left;verticalAlign=top;spacingLeft=4;spacingRight=4;overflow=hidden;rotatable=0;points=[[0,0.5],[1,0.5]];portConstraint=eastwest;whiteSpace=wrap;html=1;" vertex="1" parent="6M090ItoJZ9JLc7ZXNOy-1">
          <mxGeometry y="78" width="235" height="172" as="geometry" />
        </mxCell>
      </root>
    </mxGraphModel>
  </diagram>
</mxfile>
